HIERARCHY
ROOT joint_Root
{
	OFFSET 0.0 0.0 0.0
	CHANNELS 6 Xposition Yposition Zposition Zrotation Xrotation Yrotation 
	JOINT Hips
	{
		OFFSET 4.5925 91.4895 -427.239
		CHANNELS 6 Xposition Yposition Zposition Zrotation Xrotation Yrotation 
		JOINT Spine
		{
			OFFSET 15.7357 0.0 0.0
			CHANNELS 6 Xposition Yposition Zposition Zrotation Xrotation Yrotation 
			JOINT Chest
			{
				OFFSET 8.98455 -0.406207 0.0
				CHANNELS 6 Xposition Yposition Zposition Zrotation Xrotation Yrotation 
				JOINT Neck
				{
					OFFSET 16.3773 0.0 0.0
					CHANNELS 6 Xposition Yposition Zposition Zrotation Xrotation Yrotation 
					JOINT Head
					{
						OFFSET 6.45672 0.0 0.0
						CHANNELS 6 Xposition Yposition Zposition Zrotation Xrotation Yrotation 
						End Site
						{
							OFFSET 0.0 0.0 0.0
						}
					}
				}
				JOINT Shoulder_L
				{
					OFFSET 12.9942 -0.242716 4.98039
					CHANNELS 6 Xposition Yposition Zposition Zrotation Xrotation Yrotation 
					JOINT UpperArm_L
					{
						OFFSET 5.34809 0.0 0.0
						CHANNELS 6 Xposition Yposition Zposition Zrotation Xrotation Yrotation 
						JOINT LowerArm_L
						{
							OFFSET 24.3286 1.87007e-05 0.0
							CHANNELS 6 Xposition Yposition Zposition Zrotation Xrotation Yrotation 
							JOINT Hand_L
							{
								OFFSET 22.2916 0.0 0.0
								CHANNELS 6 Xposition Yposition Zposition Zrotation Xrotation Yrotation 
								End Site
								{
									OFFSET 0.0 0.0 0.0
								}
							}
						}
					}
				}
				JOINT Shoulder_R
				{
					OFFSET 12.9945 -0.242716 -4.98039
					CHANNELS 6 Xposition Yposition Zposition Zrotation Xrotation Yrotation 
					JOINT UpperArm_R
					{
						OFFSET -5.34813 0.0 0.0
						CHANNELS 6 Xposition Yposition Zposition Zrotation Xrotation Yrotation 
						JOINT LowerArm_R
						{
							OFFSET -24.3289 0.000322201 0.0
							CHANNELS 6 Xposition Yposition Zposition Zrotation Xrotation Yrotation 
							JOINT Hand_R
							{
								OFFSET -22.2915 -0.000108084 0.0
								CHANNELS 6 Xposition Yposition Zposition Zrotation Xrotation Yrotation 
								End Site
								{
									OFFSET 0.0 0.0 0.0
								}
							}
						}
					}
				}
			}
		}
		JOINT UpperLeg_L
		{
			OFFSET -2.19248 -6.46944 0.0
			CHANNELS 6 Xposition Yposition Zposition Zrotation Xrotation Yrotation 
			JOINT LowerLeg_L
			{
				OFFSET 39.0811 0.0 -1.23785e-05
				CHANNELS 6 Xposition Yposition Zposition Zrotation Xrotation Yrotation 
				JOINT Foot_L
				{
					OFFSET 40.9854 0.0 -1.26872e-05
					CHANNELS 6 Xposition Yposition Zposition Zrotation Xrotation Yrotation 
					JOINT Toes_L
					{
						OFFSET 11.7543 0.0 0.0
						CHANNELS 6 Xposition Yposition Zposition Zrotation Xrotation Yrotation 
						End Site
						{
							OFFSET 0.0 0.0 0.0
						}
					}
				}
			}
		}
		JOINT UpperLeg_R
		{
			OFFSET -2.19251 6.46944 0.0
			CHANNELS 6 Xposition Yposition Zposition Zrotation Xrotation Yrotation 
			JOINT LowerLeg_R
			{
				OFFSET -39.0811 -0.00228153 -0.0401928
				CHANNELS 6 Xposition Yposition Zposition Zrotation Xrotation Yrotation 
				JOINT Foot_R
				{
					OFFSET -40.9854 0.0 0.0
					CHANNELS 6 Xposition Yposition Zposition Zrotation Xrotation Yrotation 
					JOINT Toes_R
					{
						OFFSET -11.7543 0.0 0.0
						CHANNELS 6 Xposition Yposition Zposition Zrotation Xrotation Yrotation 
						End Site
						{
							OFFSET 0.0 0.0 0.0
						}
					}
				}
			}
		}
	}
}
MOTION
Frames:	6
Frame Time:	0.0333333
0.000000 0.000000 0.000000 0.000000 0.000000 -0.000000 2.591280 83.358000 0.133638 89.118400 -4.593140 11.764900 15.735700 0.000005 -0.000001 95.424200 79.457500 -95.746600 8.984550 -0.406207 -0.000000 13.235700 1.957020 -0.871940 16.377300 -0.000001 -0.000001 -0.195678 -4.531840 2.419400 6.456720 -0.000001 -0.000000 -3.177510 -7.176910 6.694460 12.994200 -0.242716 4.980390 -92.476700 7.008590 -70.481400 5.348090 -0.000007 -0.000001 -67.802500 20.778300 -4.728770 24.328600 0.000019 0.000005 7.348060 17.981400 -22.670800 22.291600 -0.000001 0.000005 10.639400 5.280260 0.601728 12.994500 -0.242716 -4.980390 88.340000 9.455490 -79.995300 -5.348130 -0.000001 -0.000004 -60.284100 29.896300 -13.468300 -24.328900 0.000322 -0.000009 -0.931855 -1.810970 -27.207600 -22.291500 -0.000108 -0.000004 17.222800 5.417150 -3.501980 -2.192480 -6.469440 -0.000000 -175.049000 -14.285900 -11.135900 39.081100 -0.000007 -0.000012 -0.508539 0.310334 58.607700 40.985400 -0.000006 -0.000013 2.713050 3.454910 -85.554200 11.754300 -0.000000 0.000003 -0.000384 -0.003196 -16.695600 -2.192510 6.469440 -0.000001 173.743000 12.626800 168.318000 -39.081100 -0.002282 -0.040193 0.067302 -0.038841 58.784300 -40.985400 0.000008 0.000006 5.325840 7.639140 -84.149100 -11.754300 -0.000006 -0.000006 -0.521879 -0.641033 -17.523900
0.000000 0.000000 0.000000 0.000000 0.000000 -0.000000 3.170430 84.716700 0.723499 89.835900 -6.067260 11.257800 15.735700 0.000005 -0.000001 94.695800 80.260800 -94.498900 8.984550 -0.406207 -0.000000 11.647600 1.588090 0.231677 16.377300 -0.000001 -0.000001 0.730996 -3.847740 2.387110 6.456720 -0.000001 -0.000000 -1.919830 -5.751260 4.801780 12.994200 -0.242716 4.980390 -92.184700 5.982400 -69.894800 5.348090 -0.000007 -0.000001 -63.998000 15.299700 -5.808660 24.328600 0.000019 0.000005 7.842510 19.707700 -22.218900 22.291600 -0.000001 0.000005 6.065860 5.305820 -0.090172 12.994500 -0.242716 -4.980390 88.242200 9.293710 -79.240100 -5.348130 -0.000001 -0.000004 -60.522100 29.095000 -13.200800 -24.328900 0.000322 -0.000009 -0.588673 -1.223300 -25.655500 -22.291500 -0.000108 -0.000004 16.596700 5.413040 -3.366010 -2.192480 -6.469440 -0.000000 -176.203000 -15.197600 -8.850270 39.081100 -0.000007 -0.000012 -0.474421 0.344707 53.999500 40.985400 -0.000006 -0.000013 2.566900 2.697650 -83.820900 11.754300 -0.000000 0.000003 -0.000352 -0.002970 -16.687600 -2.192510 6.469440 -0.000001 173.151000 10.595800 169.672000 -39.081100 -0.002282 -0.040193 0.051263 -0.033786 54.879300 -40.985400 0.000008 0.000006 4.608270 7.681350 -82.088600 -11.754300 -0.000006 -0.000006 -0.592260 -0.725581 -17.688400
0.000000 0.000000 0.000000 0.000000 0.000000 -0.000000 3.550890 86.439300 1.176370 90.123300 -6.705350 10.103000 15.735700 0.000005 -0.000001 93.905800 81.403100 -92.975300 8.984550 -0.406207 -0.000000 9.380310 1.177670 1.762890 16.377300 -0.000001 -0.000001 2.436380 -3.083480 1.708740 6.456720 -0.000001 -0.000000 -1.032710 -4.364280 2.859330 12.994200 -0.242716 4.980390 -91.526400 4.063150 -69.389300 5.348090 -0.000007 -0.000001 -57.185800 5.526980 -10.997800 24.328600 0.000019 0.000005 9.065710 23.437700 -21.858300 22.291600 -0.000001 0.000005 5.405830 5.287890 0.405337 12.994500 -0.242716 -4.980390 88.199900 8.777510 -78.362100 -5.348130 -0.000001 -0.000004 -61.532900 27.382900 -11.197300 -24.328900 0.000322 -0.000009 -0.289291 -0.594798 -25.849600 -22.291500 -0.000108 -0.000004 16.172100 5.418320 -3.543910 -2.192480 -6.469440 -0.000000 -177.094000 -15.468900 -6.828910 39.081100 -0.000007 -0.000012 -0.396771 0.356975 48.023100 40.985400 -0.000006 -0.000013 2.437980 2.325310 -81.142000 11.754300 -0.000000 0.000003 -0.000331 -0.002821 -16.682300 -2.192510 6.469440 -0.000001 172.989000 9.877370 171.166000 -39.081100 -0.002282 -0.040193 0.038175 -0.029816 49.512500 -40.985400 0.000008 0.000006 4.020220 7.929870 -78.993200 -11.754300 -0.000006 -0.000006 -0.627081 -0.765600 -18.138600
0.000000 0.000000 0.000000 0.000000 0.000000 -0.000000 3.666900 88.029800 1.421900 89.942800 -6.661710 8.629560 15.735700 0.000005 -0.000001 93.818300 82.622600 -92.079100 8.984550 -0.406207 -0.000000 6.944460 0.966818 3.416080 16.377300 -0.000001 -0.000001 4.302180 -2.701080 1.189900 6.456720 -0.000001 -0.000000 -0.194105 -3.344560 1.133900 12.994200 -0.242716 4.980390 -90.836800 2.253600 -69.627500 5.348090 -0.000007 -0.000001 -50.104600 -10.055700 -18.856700 24.328600 0.000019 0.000005 7.712050 18.809500 -22.795000 22.291600 -0.000001 0.000005 6.944120 5.238390 1.736280 12.994500 -0.242716 -4.980390 88.174500 8.123100 -77.288700 -5.348130 -0.000001 -0.000004 -62.051500 25.952400 -8.894800 -24.328900 0.000322 -0.000009 -0.820983 -1.629260 -26.710900 -22.291500 -0.000108 -0.000004 15.502900 5.434500 -4.095850 -2.192480 -6.469440 -0.000000 -177.521000 -14.993900 -5.354250 39.081100 -0.000007 -0.000012 -0.320983 0.354788 42.136900 40.985400 -0.000006 -0.000013 2.223330 2.128990 -78.279300 11.754300 -0.000000 0.000003 -0.000305 -0.002639 -16.675800 -2.192510 6.469440 -0.000001 173.257000 10.608900 172.528000 -39.081100 -0.002282 -0.040193 0.027713 -0.025339 43.971600 -40.985400 0.000008 0.000006 3.705850 8.609640 -75.727200 -11.754300 -0.000006 -0.000006 -0.751824 -0.910081 -18.568900
0.000000 0.000000 0.000000 0.000000 0.000000 -0.000000 3.580690 89.165900 1.537160 89.584800 -6.407590 7.394270 15.735700 0.000005 -0.000001 93.682700 83.622900 -91.374600 8.984550 -0.406207 -0.000000 4.951110 0.761009 4.578030 16.377300 -0.000001 -0.000001 5.646090 -2.617900 1.510690 6.456720 -0.000001 -0.000000 0.241376 -2.829690 0.199222 12.994200 -0.242716 4.980390 -90.076200 0.215817 -70.713000 5.348090 -0.000007 -0.000001 -42.734600 -24.652000 -27.653300 24.328600 0.000019 0.000005 5.508480 10.449500 -28.032700 22.291600 -0.000001 0.000005 11.595800 5.279730 0.669250 12.994500 -0.242716 -4.980390 88.094000 7.841950 -76.293100 -5.348130 -0.000001 -0.000004 -61.477200 25.264800 -7.136650 -24.328900 0.000322 -0.000009 -1.323820 -2.523320 -27.674600 -22.291500 -0.000108 -0.000004 14.410600 5.440910 -4.317550 -2.192480 -6.469440 -0.000000 -177.575000 -14.102400 -4.345040 39.081100 -0.000007 -0.000012 -0.270270 0.351315 37.571900 40.985400 -0.000006 -0.000013 1.876860 1.835400 -75.973600 11.754300 -0.000000 0.000003 -0.000269 -0.002375 -16.666300 -2.192510 6.469440 -0.000001 173.546000 12.603800 173.864000 -39.081100 -0.002282 -0.040193 0.021853 -0.022746 39.232500 -40.985400 0.000008 0.000006 3.984010 10.119100 -73.575600 -11.754300 -0.000006 -0.000006 -0.576198 -0.704464 -18.635200
0.000000 0.000000 0.000000 0.000000 0.000000 -0.000000 3.503780 89.820700 1.484740 89.128300 -6.366540 6.443880 15.735700 0.000005 -0.000001 92.036100 84.184700 -89.330600 8.984550 -0.406207 -0.000000 3.855400 0.320470 5.394160 16.377300 -0.000001 -0.000001 5.916650 -2.577350 2.072720 6.456720 -0.000001 -0.000000 0.050504 -2.526080 0.275378 12.994200 -0.242716 4.980390 -89.034700 -2.972740 -71.993600 5.348090 -0.000007 -0.000001 -35.991000 -38.339900 -35.079200 24.328600 0.000019 0.000005 4.017280 5.270120 -37.455300 22.291600 -0.000001 0.000005 17.297300 5.369240 -1.914210 12.994500 -0.242716 -4.980390 87.980300 7.995440 -75.773500 -5.348130 -0.000001 -0.000004 -59.359800 25.302600 -6.870730 -24.328900 0.000322 -0.000009 -1.211800 -2.227900 -28.532800 -22.291500 -0.000108 -0.000004 14.377700 5.437200 -4.188070 -2.192480 -6.469440 -0.000000 -177.532000 -12.979500 -4.046680 39.081100 -0.000007 -0.000012 -0.240717 0.345394 34.874400 40.985400 -0.000006 -0.000013 1.480830 1.039800 -74.525100 11.754300 -0.000000 0.000003 -0.000248 -0.002219 -16.660700 -2.192510 6.469440 -0.000001 173.648000 15.603800 174.943000 -39.081100 -0.002282 -0.040193 0.016217 -0.018013 35.666300 -40.985400 0.000008 0.000006 4.588180 12.778200 -72.694000 -11.754300 -0.000006 -0.000006 -0.165177 -0.226535 -18.232500
